<?xml version="1.0" encoding="UTF-8"?>
<svg version="1.1" viewBox="0 0 500 500" xmlns="http://www.w3.org/2000/svg">
  <title>Fix logo - Love</title>
  <path d="m250 466c-127 0-230-99.8-230-223 0-123 103-223 230-223 61 0 120 23.5 163 65.3 43.1 41.8 67.4 98.5 67.4 158v223z" fill="#ff0" stroke="#000" stroke-opacity="null" stroke-width="39.4"/>
  <path d="m186 321-29 71-29-71z" fill="#f00" stroke="#000" stroke-opacity="null" stroke-width="20"/>
  <g stroke="#ff5656" stroke-width="0">
    <path d="m219 396 101-64.2 100 64.2-38.4 104h-124z" fill="#bf0000"/>
    <path d="m261 494 58.1-155 58.1 155z" fill="#f00"/>
    <path d="m226 398 93.3-59.4 93.2 59.4z" fill="#800118" fill-opacity=".7"/>
    <path d="m297 398-35.8 95.9-35.8-95.9z" fill="#d0000d" stroke-opacity="null"/>
    <path d="m413 398-35.8 95.9-35.8-95.9z" fill="#ff3003" stroke-opacity="null"/>
  </g>
  <g transform="translate(0 1.55)">
    <circle cx="90" cy="160" r="80" fill="#fff" stroke="#000" stroke-opacity="null" stroke-width="20"/>
    <path d="m107 182c18.8-43.9 92.6 0 0 56.4-92.6-56.4-18.8-100 0-56.4z" fill="#f00" stroke="#a91200" stroke-width="6.63"/>
  </g>
  <g transform="translate(132 1.55)">
    <circle cx="90" cy="160" r="80" fill="#fff" stroke="#000" stroke-opacity="null" stroke-width="20"/>
    <path d="m107 182c18.8-43.9 92.6 0 0 56.4-92.6-56.4-18.8-100 0-56.4z" fill="#f00" stroke="#a91200" stroke-width="6.63"/>
  </g>
</svg>
